<svg width="52" height="24" viewBox="0 0 52 24" fill="none" xmlns="http://www.w3.org/2000/svg">
<g clip-path="url(#clip0_1670_956)">
<path d="M13.2285 4.71807C12.9019 4.4008 12.5189 4.15153 12.0684 3.97023C11.6178 3.80026 11.0997 3.69828 10.5253 3.69828H9.89452C9.35388 3.69828 8.84705 3.7776 8.36272 3.9589V0.276245H6.04248V10.1344C6.04248 10.6897 6.12134 11.1996 6.29028 11.6641C6.45922 12.1174 6.70702 12.514 7.02237 12.8426C7.34902 13.1712 7.73199 13.4092 8.18251 13.5904C8.63302 13.7604 9.15117 13.8511 9.72558 13.8511H10.5028C11.0772 13.8511 11.5953 13.7718 12.0458 13.5904C12.4963 13.4205 12.8906 13.1712 13.2059 12.8426C13.5326 12.514 13.7691 12.1174 13.9381 11.6641C14.107 11.2109 14.1859 10.701 14.1859 10.1344V7.40359C14.1859 6.83702 14.107 6.31579 13.9381 5.86253C13.7917 5.40932 13.5551 5.03539 13.2285 4.71807ZM11.9445 10.0551C11.9445 10.497 11.8206 10.8483 11.5502 11.1316C11.2912 11.4148 10.9533 11.5508 10.5253 11.5508H9.74812C9.33138 11.5508 8.99345 11.4148 8.74565 11.1316C8.49789 10.8483 8.37399 10.4857 8.37399 10.0551V7.40359C8.38527 6.99568 8.50912 6.65573 8.75692 6.39512C8.99345 6.12319 9.33138 5.99852 9.74812 5.99852H10.5253C10.942 5.99852 11.2799 6.1345 11.5502 6.40643C11.8093 6.6784 11.9445 7.04102 11.9445 7.4716V10.0551ZM21.1128 3.93624C20.6623 3.7776 20.1667 3.68695 19.6148 3.68695H18.8376C18.2632 3.68695 17.7451 3.7776 17.2945 3.9589C16.844 4.12887 16.4498 4.38949 16.1344 4.70676C15.8191 5.02403 15.5713 5.40932 15.4023 5.86253C15.2333 6.31579 15.1545 6.8257 15.1545 7.40359V10.1344C15.1545 10.6897 15.2333 11.1996 15.4023 11.6641C15.5713 12.1174 15.8191 12.514 16.1344 12.8426C16.4611 13.1712 16.844 13.4092 17.2945 13.5904C17.7451 13.7604 18.2632 13.8511 18.8376 13.8511H23.3204V0.276245H21.124V3.93624H21.1128ZM21.1128 11.5395H18.8376C18.4209 11.5395 18.0604 11.4035 17.7676 11.1202C17.4635 10.837 17.3283 10.4743 17.3283 10.0438V7.46025C17.3283 7.01835 17.4748 6.66705 17.7676 6.39512C18.0717 6.12319 18.4209 5.9872 18.8376 5.9872H19.6148C20.0315 5.9872 20.3807 6.12319 20.6735 6.39512C20.9664 6.66705 21.1128 7.02966 21.1128 7.46025V11.5395ZM31.43 4.78609C31.1371 4.45746 30.7767 4.20819 30.3374 3.99289C29.8982 3.80026 29.38 3.68695 28.7944 3.68695H27.6117C27.0486 3.68695 26.553 3.7776 26.1137 3.9589C25.6744 4.12887 25.3253 4.37817 25.0324 4.67277C24.7396 4.96737 24.5256 5.30732 24.3792 5.68125C24.2327 6.06653 24.1426 6.47445 24.0863 6.89367H26.3615C26.4403 6.5764 26.5867 6.33846 26.812 6.1798C27.026 6.0325 27.409 5.94186 27.9271 5.94186H28.4227C28.7831 5.94186 29.0534 5.9872 29.2787 6.06653C29.4814 6.14582 29.6504 6.25913 29.7517 6.41779C29.8531 6.5764 29.9207 6.74638 29.9657 6.93902C29.9995 7.15433 30.0221 7.3696 30.0221 7.60755V7.80019H26.6656C26.2489 7.80019 25.8772 7.87952 25.5393 8.03813C25.2014 8.18548 24.931 8.40075 24.6945 8.65005C24.4805 8.91066 24.3003 9.21662 24.1877 9.56788C24.0751 9.93045 24.0187 10.3157 24.0187 10.7236C24.0187 11.1429 24.0751 11.5508 24.1877 11.9248C24.3003 12.2987 24.4693 12.6273 24.6945 12.8879C24.9198 13.1599 25.2126 13.3752 25.5505 13.5451C25.8997 13.7038 26.2714 13.7944 26.7106 13.7944H32.2972V7.13166C32.2972 6.71239 32.2297 6.2818 32.0833 5.86253C31.9368 5.4886 31.7341 5.11467 31.43 4.78609ZM30.0333 11.7888H26.7895C26.6206 11.7888 26.4628 11.7095 26.3277 11.5395C26.1925 11.3809 26.125 11.1202 26.125 10.769C26.125 10.4404 26.1925 10.1911 26.3277 10.0098C26.4628 9.8398 26.6206 9.74916 26.7895 9.74916H30.0333V11.7888ZM33.5024 2.61048H35.8227V0.276245H33.5024V2.61048ZM33.5024 13.8397H35.8227V3.69828H33.5024V13.8397ZM44.2249 4.78609C43.9322 4.45746 43.5718 4.20819 43.1325 3.99289C42.6933 3.80026 42.1752 3.68695 41.5895 3.68695H40.4068C39.8437 3.68695 39.3481 3.7776 38.9088 3.9589C38.4695 4.12887 38.1204 4.37817 37.8275 4.67277C37.5347 4.96737 37.3207 5.30732 37.1743 5.68125C37.0279 6.05517 36.9377 6.47445 36.8814 6.89367H39.1566C39.2355 6.5764 39.3819 6.33846 39.6071 6.1798C39.8212 6.0325 40.2041 5.94186 40.7222 5.94186H41.2178C41.5782 5.94186 41.8486 5.9872 42.0738 6.06653C42.2765 6.14582 42.4455 6.25913 42.5469 6.41779C42.6482 6.5764 42.7158 6.74638 42.7609 6.93902C42.7947 7.15433 42.8172 7.3696 42.8172 7.60755V7.80019H39.4607C39.044 7.80019 38.6723 7.87952 38.3344 8.03813C37.9965 8.18548 37.7262 8.40075 37.4896 8.65005C37.2757 8.91066 37.0954 9.21662 36.9828 9.56788C36.8701 9.93045 36.8138 10.3157 36.8138 10.7236C36.8138 11.1429 36.8701 11.5508 36.9828 11.9248C37.0954 12.2987 37.2644 12.6273 37.4896 12.8879C37.7149 13.1599 38.0077 13.3752 38.3457 13.5451C38.6948 13.7038 39.0665 13.7944 39.5058 13.7944H45.0924V7.13166C45.0924 6.71239 45.0247 6.2818 44.8785 5.86253C44.7319 5.4886 44.5065 5.11467 44.2249 4.78609ZM42.8172 11.7888H39.5734C39.4044 11.7888 39.2467 11.7095 39.1116 11.5395C38.9764 11.3809 38.9088 11.1202 38.9088 10.769C38.9088 10.4404 38.9764 10.1911 39.1116 10.0098C39.2467 9.8398 39.4044 9.74916 39.5734 9.74916H42.8172V11.7888ZM49.9468 3.69828V0.276245H47.6381V3.69828H45.7905V5.99852H47.6381V13.8397H49.9579V5.99852H51.8055V3.69828H49.9468Z" fill="#1B1202"/>
<path d="M0.827268 0.401062H4.54416C4.98345 0.401062 5.3326 0.76366 5.3326 1.20558V4.96756C5.3326 5.28483 5.15239 5.5568 4.88205 5.69274C4.7131 5.77207 4.49912 5.72673 4.36395 5.59079L0.219049 1.38688C0.072626 1.23958 0.0275727 1.03561 0.117679 0.854312C0.241575 0.593693 0.511895 0.401062 0.827268 0.401062Z" fill="#1B1202"/>
<path d="M6.61121 22.4396V18.7888H5.38477V18.275H8.40551V18.7888H7.19115V22.4396H6.61121Z" fill="#1B1202"/>
<path d="M9.99648 22.5C9.68637 22.5 9.44067 22.4436 9.25942 22.3308C9.08221 22.2139 8.95334 22.0406 8.87277 21.811C8.79224 21.5813 8.75195 21.2932 8.75195 20.9466C8.75195 20.5678 8.80432 20.2616 8.90902 20.0279C9.01775 19.7942 9.16882 19.6229 9.36215 19.5141C9.55544 19.4053 9.78704 19.3509 10.0569 19.3509C10.4717 19.3509 10.7839 19.4637 10.9933 19.6894C11.2068 19.911 11.3135 20.2697 11.3135 20.7653L11.2833 21.1461H9.3259C9.32992 21.4362 9.38427 21.6558 9.48901 21.8049C9.59371 21.95 9.78301 22.0225 10.0569 22.0225C10.1737 22.0225 10.3006 22.0205 10.4375 22.0165C10.5785 22.0084 10.7174 22.0004 10.8544 21.9923C10.9913 21.9842 11.1081 21.9762 11.2048 21.9681L11.2168 22.3912C11.1162 22.4073 10.9954 22.4234 10.8544 22.4396C10.7134 22.4597 10.5664 22.4738 10.4134 22.4819C10.2643 22.494 10.1254 22.5 9.99648 22.5ZM9.3259 20.729H10.7517C10.7517 20.3865 10.6953 20.1467 10.5825 20.0097C10.4737 19.8727 10.2985 19.8042 10.0569 19.8042C9.81927 19.8042 9.63802 19.8747 9.51318 20.0158C9.3883 20.1568 9.3259 20.3945 9.3259 20.729Z" fill="#1B1202"/>
<path d="M13.119 22.5C12.7928 22.5 12.537 22.4477 12.3517 22.3429C12.1664 22.2341 12.0356 22.0608 11.959 21.8231C11.8825 21.5853 11.8442 21.273 11.8442 20.8862C11.8442 20.5114 11.8865 20.2132 11.9711 19.9916C12.0557 19.7659 12.1926 19.6027 12.3819 19.502C12.5712 19.4012 12.8189 19.3509 13.125 19.3509C13.1975 19.3509 13.2841 19.3569 13.3848 19.369C13.4895 19.3771 13.5942 19.3892 13.699 19.4053C13.8077 19.4214 13.9003 19.4355 13.9769 19.4476L13.9587 19.907C13.8903 19.8989 13.8097 19.8908 13.7171 19.8828C13.6244 19.8747 13.5358 19.8687 13.4513 19.8647C13.3667 19.8566 13.2962 19.8526 13.2398 19.8526C13.0223 19.8526 12.8531 19.8868 12.7323 19.9553C12.6155 20.0238 12.533 20.1326 12.4846 20.2817C12.4403 20.4308 12.4182 20.6323 12.4182 20.8862C12.4182 21.1602 12.4383 21.3798 12.4786 21.545C12.5229 21.7062 12.6035 21.8231 12.7202 21.8956C12.837 21.9641 13.0102 21.9983 13.2398 21.9983C13.2962 21.9983 13.3667 21.9963 13.4513 21.9923C13.5398 21.9842 13.6305 21.9762 13.7231 21.9681C13.8198 21.9601 13.9023 21.954 13.9708 21.95L13.9889 22.4093C13.9084 22.4214 13.8137 22.4335 13.705 22.4456C13.6003 22.4618 13.4956 22.4738 13.3908 22.4819C13.2861 22.494 13.1955 22.5 13.119 22.5Z" fill="#1B1202"/>
<path d="M14.6196 22.4396V18.1239H15.1815V19.5624C15.2862 19.5181 15.4232 19.4718 15.5923 19.4234C15.7615 19.3751 15.9226 19.3509 16.0756 19.3509C16.3535 19.3509 16.567 19.4013 16.716 19.502C16.8691 19.5987 16.9738 19.7579 17.0302 19.9795C17.0866 20.1971 17.1148 20.4832 17.1148 20.8378V22.4396H16.5469V20.8741C16.5469 20.6243 16.5328 20.4248 16.5046 20.2757C16.4764 20.1266 16.42 20.0198 16.3354 19.9554C16.2548 19.8868 16.13 19.8526 15.9608 19.8526C15.8199 19.8526 15.6749 19.8707 15.5258 19.907C15.3809 19.9433 15.2661 19.9795 15.1815 20.0158V22.4396H14.6196Z" fill="#1B1202"/>
<path d="M17.894 22.4396V19.4113H18.4559V19.6229C18.5204 19.5826 18.6029 19.5423 18.7036 19.502C18.8043 19.4617 18.911 19.4274 19.0238 19.3992C19.1366 19.367 19.2453 19.3509 19.35 19.3509C19.632 19.3509 19.8474 19.4012 19.9965 19.502C20.1455 19.5987 20.2482 19.7579 20.3046 19.9795C20.365 20.1971 20.3952 20.4852 20.3952 20.8439V22.4396H19.8273V20.8741C19.8273 20.6243 19.8132 20.4248 19.785 20.2757C19.7568 20.1266 19.7004 20.0198 19.6159 19.9553C19.5313 19.8868 19.4044 19.8526 19.2353 19.8526C19.1426 19.8526 19.046 19.8626 18.9452 19.8828C18.8486 19.9029 18.756 19.9291 18.6674 19.9614C18.5828 19.9936 18.5123 20.0238 18.4559 20.052V22.4396H17.894Z" fill="#1B1202"/>
<path d="M22.3711 22.5C22.0328 22.5 21.767 22.4436 21.5736 22.3308C21.3803 22.2139 21.2434 22.0366 21.1628 21.7989C21.0823 21.5611 21.042 21.2589 21.042 20.8922C21.042 20.5416 21.0843 20.2535 21.1688 20.0279C21.2575 19.8022 21.3984 19.633 21.5918 19.5201C21.7891 19.4073 22.0489 19.3509 22.3711 19.3509C22.6973 19.3509 22.9571 19.4073 23.1504 19.5201C23.3438 19.633 23.4827 19.8022 23.5673 20.0279C23.6559 20.2535 23.7002 20.5416 23.7002 20.8922C23.7002 21.2589 23.6599 21.5611 23.5794 21.7989C23.5028 22.0366 23.3679 22.2139 23.1746 22.3308C22.9813 22.4436 22.7135 22.5 22.3711 22.5ZM22.3711 22.0225C22.5845 22.0225 22.7456 21.9842 22.8544 21.9077C22.9631 21.8311 23.0357 21.7102 23.0719 21.545C23.1081 21.3758 23.1263 21.1582 23.1263 20.8922C23.1263 20.6303 23.1041 20.4227 23.0598 20.2696C23.0155 20.1125 22.939 19.9997 22.8302 19.9311C22.7215 19.8626 22.5684 19.8284 22.3711 19.8284C22.1778 19.8284 22.0247 19.8626 21.9119 19.9311C21.8032 19.9997 21.7267 20.1125 21.6824 20.2696C21.6381 20.4227 21.6159 20.6303 21.6159 20.8922C21.6159 21.1582 21.6341 21.3758 21.6703 21.545C21.7065 21.7102 21.777 21.8311 21.8817 21.9077C21.9905 21.9842 22.1536 22.0225 22.3711 22.0225Z" fill="#1B1202"/>
<path d="M24.4258 22.4396V18.1239H24.9816V22.4396H24.4258Z" fill="#1B1202"/>
<path d="M27.0318 22.5C26.6935 22.5 26.4276 22.4436 26.2343 22.3308C26.041 22.2139 25.904 22.0366 25.8235 21.7989C25.7429 21.5611 25.7026 21.2589 25.7026 20.8922C25.7026 20.5416 25.7449 20.2535 25.8295 20.0279C25.9181 19.8022 26.0591 19.633 26.2524 19.5201C26.4498 19.4073 26.7096 19.3509 27.0318 19.3509C27.358 19.3509 27.6178 19.4073 27.8111 19.5201C28.0045 19.633 28.1434 19.8022 28.228 20.0279C28.3166 20.2535 28.3609 20.5416 28.3609 20.8922C28.3609 21.2589 28.3206 21.5611 28.24 21.7989C28.1635 22.0366 28.0286 22.2139 27.8353 22.3308C27.642 22.4436 27.3741 22.5 27.0318 22.5ZM27.0318 22.0225C27.2452 22.0225 27.4063 21.9842 27.5151 21.9077C27.6238 21.8311 27.6963 21.7102 27.7326 21.545C27.7688 21.3758 27.787 21.1582 27.787 20.8922C27.787 20.6303 27.7648 20.4227 27.7205 20.2696C27.6762 20.1125 27.5997 19.9997 27.4909 19.9311C27.3822 19.8626 27.2291 19.8284 27.0318 19.8284C26.8384 19.8284 26.6854 19.8626 26.5726 19.9311C26.4639 19.9997 26.3874 20.1125 26.3431 20.2696C26.2987 20.4227 26.2766 20.6303 26.2766 20.8922C26.2766 21.1582 26.2947 21.3758 26.331 21.545C26.3672 21.7102 26.4377 21.8311 26.5424 21.9077C26.6512 21.9842 26.8143 22.0225 27.0318 22.0225Z" fill="#1B1202"/>
<path d="M30.2652 23.8479C29.9471 23.8479 29.6893 23.8217 29.4919 23.7693C29.2946 23.717 29.1496 23.6243 29.057 23.4913C28.9643 23.3624 28.918 23.183 28.918 22.9534C28.918 22.8365 28.9341 22.7357 28.9663 22.6511C29.0026 22.5705 29.0549 22.496 29.1234 22.4275C29.1959 22.355 29.2845 22.2804 29.3892 22.2038C29.3328 22.1636 29.2885 22.1051 29.2563 22.0286C29.2281 21.952 29.214 21.8674 29.214 21.7747C29.214 21.7304 29.2382 21.6599 29.2865 21.5631C29.3348 21.4664 29.3832 21.3798 29.4315 21.3032C29.3469 21.2629 29.2684 21.2085 29.1959 21.14C29.1274 21.0675 29.0711 20.9708 29.0267 20.8499C28.9824 20.729 28.9603 20.5759 28.9603 20.3905C28.9603 20.0158 29.065 19.7498 29.2744 19.5926C29.4879 19.4315 29.7719 19.3509 30.1263 19.3509C30.235 19.3509 30.3498 19.3589 30.4706 19.3751C30.5915 19.3912 30.6861 19.4093 30.7546 19.4294L31.6789 19.4053V19.8465L31.1412 19.8344C31.1936 19.8868 31.2359 19.9574 31.2681 20.046C31.3043 20.1347 31.3225 20.2495 31.3225 20.3905C31.3225 20.6565 31.2782 20.866 31.1896 21.0191C31.1009 21.1682 30.966 21.273 30.7848 21.3335C30.6076 21.3899 30.384 21.4181 30.1142 21.4181C30.086 21.4181 30.0397 21.416 29.9753 21.412C29.9148 21.404 29.8685 21.3979 29.8363 21.3939C29.8121 21.4463 29.788 21.5067 29.7638 21.5752C29.7437 21.6397 29.7336 21.686 29.7336 21.7142C29.7336 21.7828 29.7477 21.8351 29.7759 21.8714C29.8081 21.9077 29.8745 21.9318 29.9753 21.944C30.08 21.956 30.2431 21.9621 30.4646 21.9621C30.7546 21.9621 30.9862 21.9883 31.1594 22.0406C31.3325 22.089 31.4554 22.1777 31.5279 22.3066C31.6004 22.4315 31.6366 22.6149 31.6366 22.8566C31.6366 23.2072 31.5158 23.4591 31.2741 23.6122C31.0325 23.7693 30.6962 23.8479 30.2652 23.8479ZM30.2592 23.3946C30.5411 23.3946 30.7485 23.3563 30.8815 23.2798C31.0144 23.2032 31.0808 23.0762 31.0808 22.8989C31.0808 22.7619 31.0587 22.6612 31.0144 22.5967C30.9741 22.5323 30.9016 22.49 30.7969 22.4698C30.6922 22.4497 30.5532 22.4396 30.38 22.4396C30.3438 22.4396 30.2934 22.4396 30.229 22.4396C30.1685 22.4355 30.1041 22.4335 30.0356 22.4335C29.9712 22.4295 29.9128 22.4255 29.8604 22.4214C29.8081 22.4174 29.7719 22.4154 29.7517 22.4154C29.6389 22.496 29.5604 22.5685 29.5161 22.633C29.4718 22.7015 29.4496 22.7882 29.4496 22.8929C29.4496 23.0138 29.4738 23.1105 29.5221 23.183C29.5705 23.2596 29.653 23.314 29.7698 23.3462C29.8866 23.3785 30.0497 23.3946 30.2592 23.3946ZM30.1263 20.995C30.3599 20.995 30.525 20.9486 30.6217 20.8559C30.7223 20.7632 30.7727 20.6081 30.7727 20.3905C30.7727 20.1729 30.7223 20.0178 30.6217 19.9251C30.525 19.8324 30.3599 19.7861 30.1263 19.7861C29.9088 19.7861 29.7517 19.8324 29.655 19.9251C29.5624 20.0178 29.5161 20.1729 29.5161 20.3905C29.5161 20.6081 29.5624 20.7632 29.655 20.8559C29.7517 20.9486 29.9088 20.995 30.1263 20.995Z" fill="#1B1202"/>
<path d="M32.1895 22.4395V19.4113H32.7513V22.4395H32.1895ZM32.1895 18.8008V18.2145H32.7513V18.8008H32.1895Z" fill="#1B1202"/>
<path d="M34.6698 22.5C34.3597 22.5 34.114 22.4436 33.9328 22.3308C33.7555 22.2139 33.6267 22.0406 33.5461 21.811C33.4656 21.5813 33.4253 21.2932 33.4253 20.9466C33.4253 20.5678 33.4776 20.2616 33.5824 20.0279C33.6911 19.7942 33.8421 19.6229 34.0354 19.5141C34.2288 19.4053 34.4604 19.3509 34.7302 19.3509C35.1451 19.3509 35.4572 19.4637 35.6666 19.6894C35.8801 19.911 35.9869 20.2697 35.9869 20.7653L35.9567 21.1461H33.9992C34.0033 21.4362 34.0576 21.6558 34.1624 21.8049C34.2671 21.95 34.4563 22.0225 34.7302 22.0225C34.847 22.0225 34.9739 22.0205 35.1108 22.0165C35.2518 22.0084 35.3908 22.0004 35.5277 21.9923C35.6646 21.9842 35.7814 21.9762 35.8781 21.9681L35.8902 22.3912C35.7895 22.4073 35.6687 22.4234 35.5277 22.4396C35.3867 22.4597 35.2397 22.4738 35.0867 22.4819C34.9376 22.494 34.7987 22.5 34.6698 22.5ZM33.9992 20.729H35.425C35.425 20.3865 35.3686 20.1467 35.2559 20.0097C35.1471 19.8727 34.9719 19.8042 34.7302 19.8042C34.4926 19.8042 34.3114 19.8747 34.1865 20.0158C34.0616 20.1568 33.9992 20.3945 33.9992 20.729Z" fill="#1B1202"/>
<path d="M37.6226 22.5C37.5179 22.5 37.3971 22.494 37.2601 22.4819C37.1272 22.4698 36.9943 22.4557 36.8614 22.4396C36.7325 22.4194 36.6197 22.3993 36.5231 22.3791L36.5472 21.9258C36.6479 21.9379 36.7627 21.952 36.8916 21.9681C37.0205 21.9842 37.1453 21.9983 37.2662 22.0104C37.391 22.0185 37.4897 22.0225 37.5622 22.0225C37.7152 22.0225 37.8421 22.0084 37.9428 21.9802C38.0435 21.952 38.12 21.9056 38.1724 21.8412C38.2247 21.7727 38.2509 21.68 38.2509 21.5631C38.2509 21.4705 38.2308 21.3999 38.1905 21.3516C38.1502 21.2992 38.0757 21.2569 37.967 21.2246C37.8582 21.1884 37.6991 21.1541 37.4897 21.1219C37.2642 21.0856 37.0769 21.0413 36.9278 20.9889C36.7788 20.9325 36.6681 20.8479 36.5955 20.735C36.5231 20.6222 36.4868 20.4651 36.4868 20.2636C36.4868 20.0299 36.5392 19.8485 36.6439 19.7196C36.7526 19.5866 36.8916 19.4919 37.0608 19.4355C37.2339 19.3791 37.4152 19.3509 37.6045 19.3509C37.7253 19.3509 37.8542 19.3569 37.9911 19.369C38.1321 19.3811 38.267 19.3972 38.3959 19.4174C38.5248 19.4375 38.6355 19.4557 38.7282 19.4718L38.7101 19.9311C38.6134 19.915 38.5006 19.9009 38.3717 19.8888C38.2428 19.8727 38.114 19.8606 37.9851 19.8526C37.8562 19.8445 37.7434 19.8405 37.6467 19.8405C37.534 19.8405 37.4313 19.8526 37.3386 19.8767C37.2501 19.8969 37.1796 19.9372 37.1272 19.9976C37.0789 20.054 37.0547 20.1367 37.0547 20.2454C37.0547 20.3261 37.0728 20.3905 37.1091 20.4389C37.1453 20.4872 37.2178 20.5295 37.3266 20.5658C37.4353 20.598 37.5904 20.6303 37.7918 20.6625C38.0415 20.7028 38.2408 20.7532 38.3898 20.8136C38.5389 20.8741 38.6476 20.9607 38.7161 21.0735C38.7846 21.1864 38.8188 21.3415 38.8188 21.539C38.8188 21.8976 38.7121 22.1474 38.4986 22.2885C38.2892 22.4295 37.9971 22.5 37.6226 22.5Z" fill="#1B1202"/>
<path d="M40.8521 22.4396V18.275H41.432V21.9319H43.2022V22.4396H40.8521Z" fill="#1B1202"/>
<path d="M43.6519 22.4396V21.678H44.2561V22.4396H43.6519Z" fill="#1B1202"/>
<path d="M45.0996 22.4396V18.275H45.6795V21.9319H47.4499V22.4396H45.0996Z" fill="#1B1202"/>
<path d="M47.8999 22.4396V21.678H48.5042V22.4396H47.8999Z" fill="#1B1202"/>
<path d="M50.7554 22.5C50.4412 22.5 50.1815 22.4557 49.9762 22.3671C49.7748 22.2784 49.6175 22.1454 49.5048 21.9681C49.3921 21.7868 49.3136 21.5631 49.2691 21.2972C49.2249 21.0272 49.2026 20.7169 49.2026 20.3664C49.2026 20.0077 49.2249 19.6934 49.2691 19.4234C49.3136 19.1535 49.3921 18.9298 49.5048 18.7525C49.6218 18.5712 49.7808 18.4362 49.9822 18.3475C50.1836 18.2548 50.4434 18.2085 50.7614 18.2085C50.9024 18.2085 51.0455 18.2166 51.1904 18.2327C51.3356 18.2448 51.4702 18.2629 51.5954 18.2871C51.7239 18.3072 51.8349 18.3274 51.9275 18.3475L51.9035 18.825C51.8186 18.8089 51.7119 18.7948 51.5829 18.7827C51.4582 18.7666 51.3292 18.7525 51.1964 18.7404C51.0678 18.7283 50.9486 18.7223 50.8402 18.7223C50.6225 18.7223 50.4455 18.7545 50.3084 18.819C50.1716 18.8835 50.0649 18.9822 49.9882 19.1152C49.9158 19.2481 49.8652 19.4174 49.8374 19.6229C49.8129 19.8284 49.8009 20.0762 49.8009 20.3664C49.8009 20.6484 49.8129 20.8922 49.8374 21.0977C49.8652 21.3033 49.9158 21.4725 49.9882 21.6055C50.0606 21.7344 50.1652 21.8311 50.3024 21.8956C50.4434 21.9561 50.6246 21.9863 50.8462 21.9863C51.0151 21.9863 51.1985 21.9762 51.3956 21.9561C51.5971 21.9359 51.7685 21.9137 51.9095 21.8895L51.9275 22.3731C51.8306 22.3932 51.7162 22.4134 51.5829 22.4335C51.4544 22.4537 51.3172 22.4698 51.1724 22.4819C51.0314 22.494 50.8925 22.5 50.7554 22.5Z" fill="#1B1202"/>
</g>
<defs>
<clipPath id="clip0_1670_956">
<rect width="51.8571" height="24" fill="white" transform="translate(0.0712891)"/>
</clipPath>
</defs>
</svg>
