<svg width="40" height="40" viewBox="0 0 40 40" fill="none" xmlns="http://www.w3.org/2000/svg">
<rect width="40" height="40" rx="8" fill="#F5F5F5"/>
<path d="M19.9997 13.6C18.2323 13.6 16.7997 15.0325 16.7997 16.8V17.3333C16.7997 19.1008 18.2323 20.5333 19.9997 20.5333C21.7672 20.5333 23.1997 19.1008 23.1997 17.3333V16.8C23.1997 15.0325 21.7672 13.6 19.9997 13.6ZM19.9987 22.1333C17.8622 22.1333 15.1208 23.289 14.332 24.3146C13.8446 24.9487 14.3086 25.8667 15.1081 25.8667H24.8904C25.6898 25.8667 26.1539 24.9487 25.6664 24.3146C24.8776 23.2895 22.1352 22.1333 19.9987 22.1333Z" fill="#0A0D14"/>
</svg>
